<mxfile host="app.diagrams.net" modified="2023-12-19T02:49:17.055Z" agent="Mozilla/5.0 (Windows NT 10.0; Win64; x64) AppleWebKit/537.36 (KHTML, like Gecko) Chrome/118.0.0.0 Safari/537.36" etag="8HTMjyMqGCvdaBuJhUqr" version="22.1.11" type="github">
  <diagram name="Page-1" id="e56a1550-8fbb-45ad-956c-1786394a9013">
    <mxGraphModel dx="730" dy="489" grid="1" gridSize="10" guides="1" tooltips="1" connect="1" arrows="1" fold="1" page="1" pageScale="1" pageWidth="1100" pageHeight="850" background="none" math="0" shadow="0">
      <root>
        <mxCell id="0" />
        <mxCell id="1" parent="0" />
        <mxCell id="2e49270ec7c68f3f-1" value="中间表" style="swimlane;html=1;fontStyle=0;childLayout=stackLayout;horizontal=1;startSize=26;fillColor=#e0e0e0;horizontalStack=0;resizeParent=1;resizeLast=0;collapsible=1;marginBottom=0;swimlaneFillColor=#ffffff;align=center;rounded=0;shadow=0;comic=0;labelBackgroundColor=none;strokeWidth=1;fontFamily=Verdana;fontSize=14" parent="1" vertex="1">
          <mxGeometry x="280" y="130" width="160" height="112" as="geometry" />
        </mxCell>
        <mxCell id="2e49270ec7c68f3f-4" value="广东四大行主要业务指标旬报.xlsx" style="shape=partialRectangle;top=0;left=0;right=0;bottom=1;html=1;align=left;verticalAlign=middle;fillColor=none;spacingLeft=60;spacingRight=4;whiteSpace=wrap;overflow=hidden;rotatable=0;points=[[0,0.5],[1,0.5]];portConstraint=eastwest;dropTarget=0;fontStyle=5;" parent="2e49270ec7c68f3f-1" vertex="1">
          <mxGeometry y="26" width="160" height="56" as="geometry" />
        </mxCell>
        <mxCell id="2e49270ec7c68f3f-30" value="Table" style="swimlane;html=1;fontStyle=0;childLayout=stackLayout;horizontal=1;startSize=26;fillColor=#e0e0e0;horizontalStack=0;resizeParent=1;resizeLast=0;collapsible=1;marginBottom=0;swimlaneFillColor=#ffffff;align=center;rounded=0;shadow=0;comic=0;labelBackgroundColor=none;strokeWidth=1;fontFamily=Verdana;fontSize=14" parent="1" vertex="1">
          <mxGeometry x="580" y="409" width="160" height="144" as="geometry" />
        </mxCell>
        <mxCell id="2e49270ec7c68f3f-31" value="uniqueId" style="shape=partialRectangle;top=0;left=0;right=0;bottom=1;html=1;align=left;verticalAlign=middle;fillColor=none;spacingLeft=34;spacingRight=4;whiteSpace=wrap;overflow=hidden;rotatable=0;points=[[0,0.5],[1,0.5]];portConstraint=eastwest;dropTarget=0;fontStyle=5;" parent="2e49270ec7c68f3f-30" vertex="1">
          <mxGeometry y="26" width="160" height="30" as="geometry" />
        </mxCell>
        <mxCell id="2e49270ec7c68f3f-32" value="PK" style="shape=partialRectangle;top=0;left=0;bottom=0;html=1;fillColor=none;align=left;verticalAlign=middle;spacingLeft=4;spacingRight=4;whiteSpace=wrap;overflow=hidden;rotatable=0;points=[];portConstraint=eastwest;part=1;" parent="2e49270ec7c68f3f-31" vertex="1" connectable="0">
          <mxGeometry width="30" height="30" as="geometry" />
        </mxCell>
        <mxCell id="2e49270ec7c68f3f-33" value="row 1" style="shape=partialRectangle;top=0;left=0;right=0;bottom=0;html=1;align=left;verticalAlign=top;fillColor=none;spacingLeft=34;spacingRight=4;whiteSpace=wrap;overflow=hidden;rotatable=0;points=[[0,0.5],[1,0.5]];portConstraint=eastwest;dropTarget=0;" parent="2e49270ec7c68f3f-30" vertex="1">
          <mxGeometry y="56" width="160" height="26" as="geometry" />
        </mxCell>
        <mxCell id="2e49270ec7c68f3f-34" value="" style="shape=partialRectangle;top=0;left=0;bottom=0;html=1;fillColor=none;align=left;verticalAlign=top;spacingLeft=4;spacingRight=4;whiteSpace=wrap;overflow=hidden;rotatable=0;points=[];portConstraint=eastwest;part=1;" parent="2e49270ec7c68f3f-33" vertex="1" connectable="0">
          <mxGeometry width="30" height="26" as="geometry" />
        </mxCell>
        <mxCell id="2e49270ec7c68f3f-35" value="row 2" style="shape=partialRectangle;top=0;left=0;right=0;bottom=0;html=1;align=left;verticalAlign=top;fillColor=none;spacingLeft=34;spacingRight=4;whiteSpace=wrap;overflow=hidden;rotatable=0;points=[[0,0.5],[1,0.5]];portConstraint=eastwest;dropTarget=0;" parent="2e49270ec7c68f3f-30" vertex="1">
          <mxGeometry y="82" width="160" height="26" as="geometry" />
        </mxCell>
        <mxCell id="2e49270ec7c68f3f-36" value="" style="shape=partialRectangle;top=0;left=0;bottom=0;html=1;fillColor=none;align=left;verticalAlign=top;spacingLeft=4;spacingRight=4;whiteSpace=wrap;overflow=hidden;rotatable=0;points=[];portConstraint=eastwest;part=1;" parent="2e49270ec7c68f3f-35" vertex="1" connectable="0">
          <mxGeometry width="30" height="26" as="geometry" />
        </mxCell>
        <mxCell id="2e49270ec7c68f3f-37" value="row 3" style="shape=partialRectangle;top=0;left=0;right=0;bottom=0;html=1;align=left;verticalAlign=top;fillColor=none;spacingLeft=34;spacingRight=4;whiteSpace=wrap;overflow=hidden;rotatable=0;points=[[0,0.5],[1,0.5]];portConstraint=eastwest;dropTarget=0;" parent="2e49270ec7c68f3f-30" vertex="1">
          <mxGeometry y="108" width="160" height="26" as="geometry" />
        </mxCell>
        <mxCell id="2e49270ec7c68f3f-38" value="" style="shape=partialRectangle;top=0;left=0;bottom=0;html=1;fillColor=none;align=left;verticalAlign=top;spacingLeft=4;spacingRight=4;whiteSpace=wrap;overflow=hidden;rotatable=0;points=[];portConstraint=eastwest;part=1;" parent="2e49270ec7c68f3f-37" vertex="1" connectable="0">
          <mxGeometry width="30" height="26" as="geometry" />
        </mxCell>
        <mxCell id="2e49270ec7c68f3f-39" value="" style="shape=partialRectangle;top=0;left=0;right=0;bottom=0;html=1;align=left;verticalAlign=top;fillColor=none;spacingLeft=34;spacingRight=4;whiteSpace=wrap;overflow=hidden;rotatable=0;points=[[0,0.5],[1,0.5]];portConstraint=eastwest;dropTarget=0;" parent="2e49270ec7c68f3f-30" vertex="1">
          <mxGeometry y="134" width="160" height="10" as="geometry" />
        </mxCell>
        <mxCell id="2e49270ec7c68f3f-40" value="" style="shape=partialRectangle;top=0;left=0;bottom=0;html=1;fillColor=none;align=left;verticalAlign=top;spacingLeft=4;spacingRight=4;whiteSpace=wrap;overflow=hidden;rotatable=0;points=[];portConstraint=eastwest;part=1;" parent="2e49270ec7c68f3f-39" vertex="1" connectable="0">
          <mxGeometry width="30" height="10" as="geometry" />
        </mxCell>
        <mxCell id="2e49270ec7c68f3f-41" value="Table" style="swimlane;html=1;fontStyle=0;childLayout=stackLayout;horizontal=1;startSize=26;fillColor=#e0e0e0;horizontalStack=0;resizeParent=1;resizeLast=0;collapsible=1;marginBottom=0;swimlaneFillColor=#ffffff;align=center;rounded=0;shadow=0;comic=0;labelBackgroundColor=none;strokeWidth=1;fontFamily=Verdana;fontSize=14" parent="1" vertex="1">
          <mxGeometry x="890" y="274" width="160" height="112" as="geometry" />
        </mxCell>
        <mxCell id="2e49270ec7c68f3f-42" value="row 1" style="shape=partialRectangle;top=0;left=0;right=0;bottom=0;html=1;align=left;verticalAlign=middle;fillColor=none;spacingLeft=60;spacingRight=4;whiteSpace=wrap;overflow=hidden;rotatable=0;points=[[0,0.5],[1,0.5]];portConstraint=eastwest;dropTarget=0;fontStyle=5;" parent="2e49270ec7c68f3f-41" vertex="1">
          <mxGeometry y="26" width="160" height="30" as="geometry" />
        </mxCell>
        <mxCell id="2e49270ec7c68f3f-43" value="PK,FK1" style="shape=partialRectangle;fontStyle=1;top=0;left=0;bottom=0;html=1;fillColor=none;align=left;verticalAlign=middle;spacingLeft=4;spacingRight=4;whiteSpace=wrap;overflow=hidden;rotatable=0;points=[];portConstraint=eastwest;part=1;" parent="2e49270ec7c68f3f-42" vertex="1" connectable="0">
          <mxGeometry width="56" height="30" as="geometry" />
        </mxCell>
        <mxCell id="2e49270ec7c68f3f-44" value="row 2" style="shape=partialRectangle;top=0;left=0;right=0;bottom=1;html=1;align=left;verticalAlign=middle;fillColor=none;spacingLeft=60;spacingRight=4;whiteSpace=wrap;overflow=hidden;rotatable=0;points=[[0,0.5],[1,0.5]];portConstraint=eastwest;dropTarget=0;fontStyle=5;" parent="2e49270ec7c68f3f-41" vertex="1">
          <mxGeometry y="56" width="160" height="30" as="geometry" />
        </mxCell>
        <mxCell id="2e49270ec7c68f3f-45" value="PK,FK2" style="shape=partialRectangle;fontStyle=1;top=0;left=0;bottom=0;html=1;fillColor=none;align=left;verticalAlign=middle;spacingLeft=4;spacingRight=4;whiteSpace=wrap;overflow=hidden;rotatable=0;points=[];portConstraint=eastwest;part=1;" parent="2e49270ec7c68f3f-44" vertex="1" connectable="0">
          <mxGeometry width="56" height="30" as="geometry" />
        </mxCell>
        <mxCell id="2e49270ec7c68f3f-46" value="row 1" style="shape=partialRectangle;top=0;left=0;right=0;bottom=0;html=1;align=left;verticalAlign=top;fillColor=none;spacingLeft=60;spacingRight=4;whiteSpace=wrap;overflow=hidden;rotatable=0;points=[[0,0.5],[1,0.5]];portConstraint=eastwest;dropTarget=0;" parent="2e49270ec7c68f3f-41" vertex="1">
          <mxGeometry y="86" width="160" height="26" as="geometry" />
        </mxCell>
        <mxCell id="2e49270ec7c68f3f-47" value="" style="shape=partialRectangle;top=0;left=0;bottom=0;html=1;fillColor=none;align=left;verticalAlign=top;spacingLeft=4;spacingRight=4;whiteSpace=wrap;overflow=hidden;rotatable=0;points=[];portConstraint=eastwest;part=1;" parent="2e49270ec7c68f3f-46" vertex="1" connectable="0">
          <mxGeometry width="56" height="26" as="geometry" />
        </mxCell>
        <mxCell id="2e49270ec7c68f3f-48" value="Table" style="swimlane;html=1;fontStyle=0;childLayout=stackLayout;horizontal=1;startSize=26;fillColor=#e0e0e0;horizontalStack=0;resizeParent=1;resizeLast=0;collapsible=1;marginBottom=0;swimlaneFillColor=#ffffff;align=center;rounded=0;shadow=0;comic=0;labelBackgroundColor=none;strokeWidth=1;fontFamily=Verdana;fontSize=14" parent="1" vertex="1">
          <mxGeometry x="240" y="470" width="160" height="112" as="geometry" />
        </mxCell>
        <mxCell id="2e49270ec7c68f3f-49" value="row 1" style="shape=partialRectangle;top=0;left=0;right=0;bottom=0;html=1;align=left;verticalAlign=middle;fillColor=none;spacingLeft=60;spacingRight=4;whiteSpace=wrap;overflow=hidden;rotatable=0;points=[[0,0.5],[1,0.5]];portConstraint=eastwest;dropTarget=0;fontStyle=5;" parent="2e49270ec7c68f3f-48" vertex="1">
          <mxGeometry y="26" width="160" height="30" as="geometry" />
        </mxCell>
        <mxCell id="2e49270ec7c68f3f-50" value="PK,FK1" style="shape=partialRectangle;fontStyle=1;top=0;left=0;bottom=0;html=1;fillColor=none;align=left;verticalAlign=middle;spacingLeft=4;spacingRight=4;whiteSpace=wrap;overflow=hidden;rotatable=0;points=[];portConstraint=eastwest;part=1;" parent="2e49270ec7c68f3f-49" vertex="1" connectable="0">
          <mxGeometry width="56" height="30" as="geometry" />
        </mxCell>
        <mxCell id="2e49270ec7c68f3f-51" value="row 2" style="shape=partialRectangle;top=0;left=0;right=0;bottom=1;html=1;align=left;verticalAlign=middle;fillColor=none;spacingLeft=60;spacingRight=4;whiteSpace=wrap;overflow=hidden;rotatable=0;points=[[0,0.5],[1,0.5]];portConstraint=eastwest;dropTarget=0;fontStyle=5;" parent="2e49270ec7c68f3f-48" vertex="1">
          <mxGeometry y="56" width="160" height="30" as="geometry" />
        </mxCell>
        <mxCell id="2e49270ec7c68f3f-52" value="PK,FK2" style="shape=partialRectangle;fontStyle=1;top=0;left=0;bottom=0;html=1;fillColor=none;align=left;verticalAlign=middle;spacingLeft=4;spacingRight=4;whiteSpace=wrap;overflow=hidden;rotatable=0;points=[];portConstraint=eastwest;part=1;" parent="2e49270ec7c68f3f-51" vertex="1" connectable="0">
          <mxGeometry width="56" height="30" as="geometry" />
        </mxCell>
        <mxCell id="2e49270ec7c68f3f-53" value="row 1" style="shape=partialRectangle;top=0;left=0;right=0;bottom=0;html=1;align=left;verticalAlign=top;fillColor=none;spacingLeft=60;spacingRight=4;whiteSpace=wrap;overflow=hidden;rotatable=0;points=[[0,0.5],[1,0.5]];portConstraint=eastwest;dropTarget=0;" parent="2e49270ec7c68f3f-48" vertex="1">
          <mxGeometry y="86" width="160" height="26" as="geometry" />
        </mxCell>
        <mxCell id="2e49270ec7c68f3f-54" value="" style="shape=partialRectangle;top=0;left=0;bottom=0;html=1;fillColor=none;align=left;verticalAlign=top;spacingLeft=4;spacingRight=4;whiteSpace=wrap;overflow=hidden;rotatable=0;points=[];portConstraint=eastwest;part=1;" parent="2e49270ec7c68f3f-53" vertex="1" connectable="0">
          <mxGeometry width="56" height="26" as="geometry" />
        </mxCell>
        <mxCell id="2e49270ec7c68f3f-60" value="" style="edgeStyle=entityRelationEdgeStyle;html=1;endArrow=ERzeroToOne;startArrow=ERmandOne;labelBackgroundColor=none;fontFamily=Verdana;fontSize=14;exitX=1;exitY=0.5;entryX=0;entryY=0.5;" parent="1" source="2e49270ec7c68f3f-49" target="2e49270ec7c68f3f-35" edge="1">
          <mxGeometry width="100" height="100" relative="1" as="geometry">
            <mxPoint x="600" y="720" as="sourcePoint" />
            <mxPoint x="700" y="620" as="targetPoint" />
          </mxGeometry>
        </mxCell>
        <mxCell id="2e49270ec7c68f3f-63" value="" style="edgeStyle=entityRelationEdgeStyle;html=1;endArrow=ERzeroToMany;startArrow=ERzeroToOne;labelBackgroundColor=none;fontFamily=Verdana;fontSize=14;entryX=0;entryY=0.5;exitX=1;exitY=0.5;" parent="1" source="2e49270ec7c68f3f-31" target="2e49270ec7c68f3f-42" edge="1">
          <mxGeometry width="100" height="100" relative="1" as="geometry">
            <mxPoint x="850" y="600" as="sourcePoint" />
            <mxPoint x="950" y="500" as="targetPoint" />
          </mxGeometry>
        </mxCell>
        <mxCell id="2e49270ec7c68f3f-64" value="Table" style="swimlane;html=1;fontStyle=0;childLayout=stackLayout;horizontal=1;startSize=26;fillColor=#e0e0e0;horizontalStack=0;resizeParent=1;resizeLast=0;collapsible=1;marginBottom=0;swimlaneFillColor=#ffffff;align=center;rounded=0;shadow=0;comic=0;labelBackgroundColor=none;strokeWidth=1;fontFamily=Verdana;fontSize=14" parent="1" vertex="1">
          <mxGeometry x="890" y="416" width="160" height="112" as="geometry" />
        </mxCell>
        <mxCell id="2e49270ec7c68f3f-65" value="row 1" style="shape=partialRectangle;top=0;left=0;right=0;bottom=0;html=1;align=left;verticalAlign=middle;fillColor=none;spacingLeft=60;spacingRight=4;whiteSpace=wrap;overflow=hidden;rotatable=0;points=[[0,0.5],[1,0.5]];portConstraint=eastwest;dropTarget=0;fontStyle=5;" parent="2e49270ec7c68f3f-64" vertex="1">
          <mxGeometry y="26" width="160" height="30" as="geometry" />
        </mxCell>
        <mxCell id="2e49270ec7c68f3f-66" value="PK,FK1" style="shape=partialRectangle;fontStyle=1;top=0;left=0;bottom=0;html=1;fillColor=none;align=left;verticalAlign=middle;spacingLeft=4;spacingRight=4;whiteSpace=wrap;overflow=hidden;rotatable=0;points=[];portConstraint=eastwest;part=1;" parent="2e49270ec7c68f3f-65" vertex="1" connectable="0">
          <mxGeometry width="56" height="30" as="geometry" />
        </mxCell>
        <mxCell id="2e49270ec7c68f3f-67" value="row 2" style="shape=partialRectangle;top=0;left=0;right=0;bottom=1;html=1;align=left;verticalAlign=middle;fillColor=none;spacingLeft=60;spacingRight=4;whiteSpace=wrap;overflow=hidden;rotatable=0;points=[[0,0.5],[1,0.5]];portConstraint=eastwest;dropTarget=0;fontStyle=5;" parent="2e49270ec7c68f3f-64" vertex="1">
          <mxGeometry y="56" width="160" height="30" as="geometry" />
        </mxCell>
        <mxCell id="2e49270ec7c68f3f-68" value="PK,FK2" style="shape=partialRectangle;fontStyle=1;top=0;left=0;bottom=0;html=1;fillColor=none;align=left;verticalAlign=middle;spacingLeft=4;spacingRight=4;whiteSpace=wrap;overflow=hidden;rotatable=0;points=[];portConstraint=eastwest;part=1;" parent="2e49270ec7c68f3f-67" vertex="1" connectable="0">
          <mxGeometry width="56" height="30" as="geometry" />
        </mxCell>
        <mxCell id="2e49270ec7c68f3f-69" value="row 1" style="shape=partialRectangle;top=0;left=0;right=0;bottom=0;html=1;align=left;verticalAlign=top;fillColor=none;spacingLeft=60;spacingRight=4;whiteSpace=wrap;overflow=hidden;rotatable=0;points=[[0,0.5],[1,0.5]];portConstraint=eastwest;dropTarget=0;" parent="2e49270ec7c68f3f-64" vertex="1">
          <mxGeometry y="86" width="160" height="26" as="geometry" />
        </mxCell>
        <mxCell id="2e49270ec7c68f3f-70" value="" style="shape=partialRectangle;top=0;left=0;bottom=0;html=1;fillColor=none;align=left;verticalAlign=top;spacingLeft=4;spacingRight=4;whiteSpace=wrap;overflow=hidden;rotatable=0;points=[];portConstraint=eastwest;part=1;" parent="2e49270ec7c68f3f-69" vertex="1" connectable="0">
          <mxGeometry width="56" height="26" as="geometry" />
        </mxCell>
        <mxCell id="2e49270ec7c68f3f-71" value="Table" style="swimlane;html=1;fontStyle=0;childLayout=stackLayout;horizontal=1;startSize=26;fillColor=#e0e0e0;horizontalStack=0;resizeParent=1;resizeLast=0;collapsible=1;marginBottom=0;swimlaneFillColor=#ffffff;align=center;rounded=0;shadow=0;comic=0;labelBackgroundColor=none;strokeWidth=1;fontFamily=Verdana;fontSize=14" parent="1" vertex="1">
          <mxGeometry x="890" y="550" width="160" height="112" as="geometry" />
        </mxCell>
        <mxCell id="2e49270ec7c68f3f-72" value="row 1" style="shape=partialRectangle;top=0;left=0;right=0;bottom=0;html=1;align=left;verticalAlign=middle;fillColor=none;spacingLeft=60;spacingRight=4;whiteSpace=wrap;overflow=hidden;rotatable=0;points=[[0,0.5],[1,0.5]];portConstraint=eastwest;dropTarget=0;fontStyle=5;" parent="2e49270ec7c68f3f-71" vertex="1">
          <mxGeometry y="26" width="160" height="30" as="geometry" />
        </mxCell>
        <mxCell id="2e49270ec7c68f3f-73" value="PK,FK1" style="shape=partialRectangle;fontStyle=1;top=0;left=0;bottom=0;html=1;fillColor=none;align=left;verticalAlign=middle;spacingLeft=4;spacingRight=4;whiteSpace=wrap;overflow=hidden;rotatable=0;points=[];portConstraint=eastwest;part=1;" parent="2e49270ec7c68f3f-72" vertex="1" connectable="0">
          <mxGeometry width="56" height="30" as="geometry" />
        </mxCell>
        <mxCell id="2e49270ec7c68f3f-74" value="row 2" style="shape=partialRectangle;top=0;left=0;right=0;bottom=1;html=1;align=left;verticalAlign=middle;fillColor=none;spacingLeft=60;spacingRight=4;whiteSpace=wrap;overflow=hidden;rotatable=0;points=[[0,0.5],[1,0.5]];portConstraint=eastwest;dropTarget=0;fontStyle=5;" parent="2e49270ec7c68f3f-71" vertex="1">
          <mxGeometry y="56" width="160" height="30" as="geometry" />
        </mxCell>
        <mxCell id="2e49270ec7c68f3f-75" value="PK,FK2" style="shape=partialRectangle;fontStyle=1;top=0;left=0;bottom=0;html=1;fillColor=none;align=left;verticalAlign=middle;spacingLeft=4;spacingRight=4;whiteSpace=wrap;overflow=hidden;rotatable=0;points=[];portConstraint=eastwest;part=1;" parent="2e49270ec7c68f3f-74" vertex="1" connectable="0">
          <mxGeometry width="56" height="30" as="geometry" />
        </mxCell>
        <mxCell id="2e49270ec7c68f3f-76" value="row 1" style="shape=partialRectangle;top=0;left=0;right=0;bottom=0;html=1;align=left;verticalAlign=top;fillColor=none;spacingLeft=60;spacingRight=4;whiteSpace=wrap;overflow=hidden;rotatable=0;points=[[0,0.5],[1,0.5]];portConstraint=eastwest;dropTarget=0;" parent="2e49270ec7c68f3f-71" vertex="1">
          <mxGeometry y="86" width="160" height="26" as="geometry" />
        </mxCell>
        <mxCell id="2e49270ec7c68f3f-77" value="" style="shape=partialRectangle;top=0;left=0;bottom=0;html=1;fillColor=none;align=left;verticalAlign=top;spacingLeft=4;spacingRight=4;whiteSpace=wrap;overflow=hidden;rotatable=0;points=[];portConstraint=eastwest;part=1;" parent="2e49270ec7c68f3f-76" vertex="1" connectable="0">
          <mxGeometry width="56" height="26" as="geometry" />
        </mxCell>
        <mxCell id="2e49270ec7c68f3f-78" value="" style="edgeStyle=entityRelationEdgeStyle;html=1;endArrow=ERzeroToMany;startArrow=ERzeroToOne;labelBackgroundColor=none;fontFamily=Verdana;fontSize=14;entryX=0;entryY=0.5;exitX=1;exitY=0.5;" parent="1" source="2e49270ec7c68f3f-33" target="2e49270ec7c68f3f-65" edge="1">
          <mxGeometry width="100" height="100" relative="1" as="geometry">
            <mxPoint x="749.7647058823532" y="459.52941176470586" as="sourcePoint" />
            <mxPoint x="900.3529411764707" y="325.41176470588243" as="targetPoint" />
          </mxGeometry>
        </mxCell>
        <mxCell id="2e49270ec7c68f3f-79" value="" style="edgeStyle=entityRelationEdgeStyle;html=1;endArrow=ERzeroToMany;startArrow=ERzeroToOne;labelBackgroundColor=none;fontFamily=Verdana;fontSize=14;entryX=0;entryY=0.5;exitX=1;exitY=0.5;" parent="1" source="2e49270ec7c68f3f-37" target="2e49270ec7c68f3f-74" edge="1">
          <mxGeometry width="100" height="100" relative="1" as="geometry">
            <mxPoint x="759.7647058823532" y="469.52941176470586" as="sourcePoint" />
            <mxPoint x="910.3529411764707" y="335.41176470588243" as="targetPoint" />
          </mxGeometry>
        </mxCell>
        <mxCell id="2e49270ec7c68f3f-80" value="原始数据" style="swimlane;html=1;fontStyle=0;childLayout=stackLayout;horizontal=1;startSize=26;fillColor=#e0e0e0;horizontalStack=0;resizeParent=1;resizeLast=0;collapsible=1;marginBottom=0;swimlaneFillColor=#ffffff;align=center;rounded=0;shadow=0;comic=0;labelBackgroundColor=none;strokeWidth=1;fontFamily=Verdana;fontSize=14" parent="1" vertex="1">
          <mxGeometry x="30" y="358" width="160" height="144" as="geometry">
            <mxRectangle x="30" y="358" width="100" height="30" as="alternateBounds" />
          </mxGeometry>
        </mxCell>
        <mxCell id="2e49270ec7c68f3f-83" value="bankjh.xls" style="shape=partialRectangle;top=0;left=0;right=0;bottom=0;html=1;align=left;verticalAlign=top;fillColor=none;spacingLeft=34;spacingRight=4;whiteSpace=wrap;overflow=hidden;rotatable=0;points=[[0,0.5],[1,0.5]];portConstraint=eastwest;dropTarget=0;" parent="2e49270ec7c68f3f-80" vertex="1">
          <mxGeometry y="26" width="160" height="26" as="geometry" />
        </mxCell>
        <mxCell id="2e49270ec7c68f3f-84" value="" style="shape=partialRectangle;top=0;left=0;bottom=0;html=1;fillColor=none;align=left;verticalAlign=top;spacingLeft=4;spacingRight=4;whiteSpace=wrap;overflow=hidden;rotatable=0;points=[];portConstraint=eastwest;part=1;" parent="2e49270ec7c68f3f-83" vertex="1" connectable="0">
          <mxGeometry width="30" height="26" as="geometry" />
        </mxCell>
        <mxCell id="2e49270ec7c68f3f-85" value="bankgh.xls" style="shape=partialRectangle;top=0;left=0;right=0;bottom=0;html=1;align=left;verticalAlign=top;fillColor=none;spacingLeft=34;spacingRight=4;whiteSpace=wrap;overflow=hidden;rotatable=0;points=[[0,0.5],[1,0.5]];portConstraint=eastwest;dropTarget=0;" parent="2e49270ec7c68f3f-80" vertex="1">
          <mxGeometry y="52" width="160" height="26" as="geometry" />
        </mxCell>
        <mxCell id="2e49270ec7c68f3f-86" value="" style="shape=partialRectangle;top=0;left=0;bottom=0;html=1;fillColor=none;align=left;verticalAlign=top;spacingLeft=4;spacingRight=4;whiteSpace=wrap;overflow=hidden;rotatable=0;points=[];portConstraint=eastwest;part=1;" parent="2e49270ec7c68f3f-85" vertex="1" connectable="0">
          <mxGeometry width="30" height="26" as="geometry" />
        </mxCell>
        <mxCell id="2e49270ec7c68f3f-87" value="bankzh.xls" style="shape=partialRectangle;top=0;left=0;right=0;bottom=0;html=1;align=left;verticalAlign=top;fillColor=none;spacingLeft=34;spacingRight=4;whiteSpace=wrap;overflow=hidden;rotatable=0;points=[[0,0.5],[1,0.5]];portConstraint=eastwest;dropTarget=0;" parent="2e49270ec7c68f3f-80" vertex="1">
          <mxGeometry y="78" width="160" height="26" as="geometry" />
        </mxCell>
        <mxCell id="2e49270ec7c68f3f-88" value="" style="shape=partialRectangle;top=0;left=0;bottom=0;html=1;fillColor=none;align=left;verticalAlign=top;spacingLeft=4;spacingRight=4;whiteSpace=wrap;overflow=hidden;rotatable=0;points=[];portConstraint=eastwest;part=1;" parent="2e49270ec7c68f3f-87" vertex="1" connectable="0">
          <mxGeometry width="30" height="26" as="geometry" />
        </mxCell>
        <mxCell id="2e49270ec7c68f3f-89" value="banknh.xls" style="shape=partialRectangle;top=0;left=0;right=0;bottom=0;html=1;align=left;verticalAlign=top;fillColor=none;spacingLeft=34;spacingRight=4;whiteSpace=wrap;overflow=hidden;rotatable=0;points=[[0,0.5],[1,0.5]];portConstraint=eastwest;dropTarget=0;" parent="2e49270ec7c68f3f-80" vertex="1">
          <mxGeometry y="104" width="160" height="36" as="geometry" />
        </mxCell>
        <mxCell id="2e49270ec7c68f3f-90" value="" style="shape=partialRectangle;top=0;left=0;bottom=0;html=1;fillColor=none;align=left;verticalAlign=top;spacingLeft=4;spacingRight=4;whiteSpace=wrap;overflow=hidden;rotatable=0;points=[];portConstraint=eastwest;part=1;" parent="2e49270ec7c68f3f-89" vertex="1" connectable="0">
          <mxGeometry width="30" height="36" as="geometry" />
        </mxCell>
        <mxCell id="2e49270ec7c68f3f-91" value="" style="edgeStyle=orthogonalEdgeStyle;html=1;endArrow=ERzeroToOne;endFill=1;labelBackgroundColor=none;fontFamily=Verdana;fontSize=14;entryX=0;entryY=0.5;exitX=1;exitY=0.5;" parent="1" edge="1">
          <mxGeometry width="100" height="100" relative="1" as="geometry">
            <mxPoint x="190" y="399" as="sourcePoint" />
            <mxPoint x="290" y="181" as="targetPoint" />
            <Array as="points">
              <mxPoint x="230" y="399" />
              <mxPoint x="230" y="181" />
            </Array>
          </mxGeometry>
        </mxCell>
        <mxCell id="2e49270ec7c68f3f-92" value="" style="edgeStyle=orthogonalEdgeStyle;html=1;endArrow=ERzeroToOne;endFill=1;labelBackgroundColor=none;fontFamily=Verdana;fontSize=14;entryX=0;entryY=0.5;exitX=1;exitY=0.5;" parent="1" source="2e49270ec7c68f3f-87" target="2e49270ec7c68f3f-53" edge="1">
          <mxGeometry width="100" height="100" relative="1" as="geometry">
            <mxPoint x="200.35294117647072" y="408.9411764705883" as="sourcePoint" />
            <mxPoint x="300.3529411764707" y="191.2941176470589" as="targetPoint" />
            <Array as="points">
              <mxPoint x="190" y="479" />
              <mxPoint x="220" y="479" />
              <mxPoint x="220" y="540" />
              <mxPoint x="280" y="540" />
              <mxPoint x="280" y="569" />
            </Array>
          </mxGeometry>
        </mxCell>
      </root>
    </mxGraphModel>
  </diagram>
</mxfile>
